# xmcd
#
# Track frame offsets: 
#        150
#        12715
#        32331
#        45132
#        61136
#        75086
#        89483
#        117082
#        139341
#        162040
#        179954
#        193148
#        201890
#        216755
#        226644
#        249242
#        254548
#        259040
#
# Disc length: 3720 seconds
#
# Revision: 16
# Processed by: cddbd v1.5.2PL0 Copyright (c) Steve Scherf et al.
# Submitted via: ExactAudioCopyFreeDBPlugin 1.0
#
DISCID=eb0e8612
DTITLE=Fleetwood Mac - Rumours (Deluxe Edition - 2004)
DYEAR=1977
DGENRE=Rock
TTITLE0=Second Hand News
TTITLE1=Dreams
TTITLE2=Brushes (Never Going Back Again)
TTITLE3=Don't Stop
TTITLE4=Go Your Own Way
TTITLE5=Songbird
TTITLE6=Silver Springs
TTITLE7=You Make Loving Fun
TTITLE8=Gold Dust Woman #1
TTITLE9=Oh Daddy
TTITLE10=Think About It
TTITLE11=Never Going Back Again
TTITLE12=Planets of the Universe
TTITLE13=Butter Cookie (Keep Me There)
TTITLE14=Gold Dust Woman
TTITLE15=Doesn't Anything Last
TTITLE16=Mic The Screecher
TTITLE17=For Duster (The Blues)
EXTD=
EXTT0=
EXTT1=
EXTT2=
EXTT3=
EXTT4=
EXTT5=
EXTT6=
EXTT7=
EXTT8=
EXTT9=
EXTT10=
EXTT11=
EXTT12=
EXTT13=
EXTT14=
EXTT15=
EXTT16=
EXTT17=
PLAYORDER=
